<svg width="25" height="30" fill="none" xmlns="http://www.w3.org/2000/svg"><path fill-rule="evenodd" clip-rule="evenodd" d="M5.969 12.75a6.531 6.531 0 1 1 13.062 0 6.531 6.531 0 0 1-13.062 0zM12.5 8.281a4.469 4.469 0 1 0 0 8.938 4.469 4.469 0 0 0 0-8.938z" fill="#fff"/><path fill-rule="evenodd" clip-rule="evenodd" d="M.846 11.178A11.396 11.396 0 0 1 12.203.718h.594c5.93 0 10.87 4.55 11.357 10.46a12.297 12.297 0 0 1-2.736 8.794l-6.59 8.06a3.007 3.007 0 0 1-4.656 0l-6.59-8.06a12.297 12.297 0 0 1-2.736-8.794zm11.357-8.397a9.333 9.333 0 0 0-9.301 8.567 10.234 10.234 0 0 0 2.276 7.319l6.59 8.06a.945.945 0 0 0 1.463 0l6.59-8.06a10.234 10.234 0 0 0 2.277-7.32 9.333 9.333 0 0 0-9.301-8.566h-.594z" fill="#fff"/></svg>